<?xml version="1.0"?>
<!-- Icon made by https://www.flaticon.com/authors/freepik from www.flaticon.com -->
<svg version="1.1" xmlns="http://www.w3.org/2000/svg" x="0px" y="0px" viewBox="0 0 512 512">
<rect x="0" y="0" width="512" height="512" fill="#e55b0a"/>
<polygon style="fill:#61acd2" points="396.126,227.861 115.874,227.861 125.238,169.924 386.762,169.924 "/>
<g>
	<path style="fill:#efefef" d="M386.762,169.924H125.238l12.544-77.404c2.695-16.707,19.213-27.384,35.597-23.099l4.904,1.331
		c50.944,13.352,104.475,13.385,155.432,0.046l4.918-1.271c16.371-4.285,32.889,6.308,35.584,23.028L386.762,169.924z"/>
	<path style="fill:#efefef" d="M498.526,228.164H13.474l0,0c0,29.765,24.13,53.895,53.895,53.895h377.263
		C474.396,282.059,498.526,257.929,498.526,228.164L498.526,228.164z"/>
</g>
<g>
	<path style="fill:#61acd2" d="M147.986,443.07h24.701c32.245,0,58.386-19.403,58.386-51.649v-21.783
		c0-11.533-9.351-20.884-20.884-20.884h-99.704c-11.533,0-20.884,9.351-20.884,20.884v21.783
		C89.6,423.666,115.74,443.07,147.986,443.07z"/>
	<path style="fill:#61acd2" d="M339.312,443.07h24.701c32.245,0,58.386-19.403,58.386-51.649v-21.783
		c0-11.533-9.351-20.884-20.884-20.884h-99.705c-11.533,0-20.884,9.351-20.884,20.884v21.783
		C280.926,423.666,307.067,443.07,339.312,443.07z"/>
</g>
<path d="M498.526,214.388h-90.928l-20.023-123.97c-1.886-11.705-8.692-22.054-18.623-28.526c-9.94-6.477-22.236-8.428-33.696-5.433
	l-4.942,1.304c-48.606,12.722-99.996,12.723-148.588-0.011l-4.933-1.296c-11.481-2.999-23.769-1.005-33.711,5.473
	c-9.933,6.473-16.711,16.745-18.598,28.438l-20.078,124.02H13.474C6.032,214.386,0,220.42,0,227.86
	c0,37.147,30.221,67.368,67.368,67.368h377.263c37.147,0,67.368-30.221,67.368-67.368C512,220.421,505.968,214.388,498.526,214.388z
	 M151.083,94.667c0.69-4.279,3.072-7.865,6.707-10.232c3.645-2.375,7.971-3.036,12.153-1.947l4.925,1.318
	c53.08,13.912,109.188,13.93,162.243,0.042l4.934-1.281c4.204-1.098,8.525-0.396,12.165,1.977c3.634,2.367,6.015,5.88,6.707,10.17
	l10.015,61.738H141.065L151.083,94.667z M136.709,183.398h238.581l5.009,30.989H131.7L136.709,183.398z M444.632,268.282H67.368
	c-17.567,0-32.551-10.779-38.113-26.947h453.488C477.183,257.503,462.199,268.282,444.632,268.282z"/>
<path d="M401.516,335.651h-99.705c-17.576,0-32.104,13.474-34.113,29.642h-23.397c-2.008-16.168-16.535-29.642-34.113-29.642
	h-99.704c-18.945,0-35.032,15.041-35.032,33.986v21.783c0,37.734,30.895,65.494,72.533,65.494h24.701
	c41.221,0,71.235-26.947,71.832-64.674h22.962c0.597,37.726,30.61,64.674,71.832,64.674h24.701c41.638,0,71.186-27.76,71.186-65.494
	v-21.782C435.2,350.693,420.461,335.651,401.516,335.651z M172.688,429.966h-24.701c-22.356,0-45.586-12.176-45.586-38.547v-21.782
	c0-4.085,3.998-7.039,8.084-7.039h99.705c4.087,0,6.737,2.953,6.737,7.039v21.783C216.926,417.792,195.042,429.966,172.688,429.966z
	 M408.253,391.421c0,26.371-21.884,38.547-44.238,38.547h-24.701c-22.356,0-45.586-12.176-45.586-38.547v-21.783
	c0-4.085,3.998-7.039,8.084-7.039h99.705c4.087,0,6.737,2.953,6.737,7.039v21.783H408.253z"/>
</svg>
